<svg width="48" height="48" viewBox="0 0 48 48" fill="none" xmlns="http://www.w3.org/2000/svg">
<path d="M38 28C40.98 25.08 44 21.58 44 17C44 14.0826 42.8411 11.2847 40.7782 9.22183C38.7153 7.15893 35.9174 6 33 6C29.48 6 27 7 24 10C21 7 18.52 6 15 6C12.0826 6 9.28473 7.15893 7.22183 9.22183C5.15893 11.2847 4 14.0826 4 17C4 21.6 7 25.1 10 28L24 42L38 28Z" stroke="currentColor" stroke-width="3" stroke-linecap="round" stroke-linejoin="round"/>
<path d="M24 10L18.08 15.92C17.6736 16.3234 17.3511 16.8032 17.131 17.3319C16.9109 17.8605 16.7976 18.4274 16.7976 19C16.7976 19.5726 16.9109 20.1395 17.131 20.6681C17.3511 21.1968 17.6736 21.6766 18.08 22.08C19.72 23.72 22.34 23.78 24.08 22.22L28.22 18.42C29.2577 17.4784 30.6088 16.9568 32.01 16.9568C33.4112 16.9568 34.7623 17.4784 35.8 18.42L41.72 23.74" stroke="currentColor" stroke-width="3" stroke-linecap="round" stroke-linejoin="round"/>
<path d="M36 30L32 26" stroke="currentColor" stroke-width="3" stroke-linecap="round" stroke-linejoin="round"/>
<path d="M30 36L26 32" stroke="currentColor" stroke-width="3" stroke-linecap="round" stroke-linejoin="round"/>
</svg>
