<svg width="27" height="30" viewBox="0 0 27 30" fill="none" xmlns="http://www.w3.org/2000/svg">
<path d="M2.67122 17.3368C2.41891 17.3377 2.17153 17.2669 1.95783 17.1328C1.74412 16.9986 1.57287 16.8066 1.46396 16.579C1.35505 16.3514 1.31295 16.0976 1.34256 15.847C1.37217 15.5965 1.47226 15.3594 1.63122 15.1635L14.8312 1.56348C14.9302 1.44919 15.0652 1.37196 15.2139 1.34446C15.3626 1.31696 15.5162 1.34083 15.6495 1.41215C15.7829 1.48348 15.888 1.59801 15.9477 1.73696C16.0073 1.87591 16.018 2.03101 15.9779 2.17682L13.4179 10.2035C13.3424 10.4055 13.3171 10.6228 13.344 10.8368C13.371 11.0508 13.4494 11.2551 13.5727 11.4321C13.6959 11.609 13.8603 11.7535 14.0516 11.853C14.2429 11.9526 14.4556 12.0042 14.6712 12.0035H24.0046C24.2569 12.0026 24.5042 12.0734 24.718 12.2075C24.9317 12.3417 25.1029 12.5337 25.2118 12.7613C25.3207 12.9889 25.3628 13.2427 25.3332 13.4933C25.3036 13.7438 25.2035 13.9809 25.0446 14.1768L11.8446 27.7768C11.7455 27.8911 11.6106 27.9683 11.4619 27.9958C11.3132 28.0233 11.1596 27.9995 11.0263 27.9281C10.8929 27.8568 10.7878 27.7423 10.7281 27.6033C10.6684 27.4644 10.6578 27.3093 10.6979 27.1635L13.2579 19.1368C13.3334 18.9348 13.3587 18.7175 13.3318 18.5035C13.3048 18.2895 13.2263 18.0852 13.1031 17.9082C12.9799 17.7313 12.8155 17.5868 12.6242 17.4873C12.4329 17.3877 12.2202 17.3361 12.0046 17.3368H2.67122Z" stroke="currentColor" stroke-width="2.66667" stroke-linecap="round" stroke-linejoin="round"/>
</svg>
